<mxfile host="app.diagrams.net" modified="2023-08-04T14:17:34.612Z" agent="Mozilla/5.0 (Windows NT 10.0; Win64; x64) AppleWebKit/537.36 (KHTML, like Gecko) Chrome/115.0.0.0 Safari/537.36" etag="WVwMFPZYew2efxSsFB73" version="21.6.6" type="device">
  <diagram id="tVwhw5ysue53fL6Bu327" name="Design ADRemove Account Computer">
    <mxGraphModel dx="1235" dy="1738" grid="1" gridSize="10" guides="1" tooltips="1" connect="1" arrows="1" fold="1" page="1" pageScale="1" pageWidth="850" pageHeight="1100" math="0" shadow="0">
      <root>
        <mxCell id="0" />
        <mxCell id="1" parent="0" />
        <mxCell id="AuBCLQnb-2w3E6iwcC4Q-24" value="" style="rounded=1;arcSize=10;dashed=1;strokeColor=#ff0000;fillColor=none;gradientColor=none;dashPattern=8 4;strokeWidth=2;" parent="1" vertex="1">
          <mxGeometry x="935.94" y="-417.25" width="170" height="169.5" as="geometry" />
        </mxCell>
        <mxCell id="fKNZNQXaBaERY7D5Q5wU-19" value="VPC" style="points=[[0,0],[0.25,0],[0.5,0],[0.75,0],[1,0],[1,0.25],[1,0.5],[1,0.75],[1,1],[0.75,1],[0.5,1],[0.25,1],[0,1],[0,0.75],[0,0.5],[0,0.25]];outlineConnect=0;gradientColor=none;html=1;whiteSpace=wrap;fontSize=12;fontStyle=0;container=1;pointerEvents=0;collapsible=0;recursiveResize=0;shape=mxgraph.aws4.group;grIcon=mxgraph.aws4.group_vpc;strokeColor=#248814;fillColor=none;verticalAlign=top;align=left;spacingLeft=30;fontColor=#AAB7B8;dashed=0;opacity=80;" parent="1" vertex="1">
          <mxGeometry x="600" y="-440" width="520" height="220" as="geometry" />
        </mxCell>
        <mxCell id="ZArKIgMxJLJJzl4LSv2I-2" value="InstanceTerminationRule" style="sketch=0;points=[[0,0,0],[0.25,0,0],[0.5,0,0],[0.75,0,0],[1,0,0],[0,1,0],[0.25,1,0],[0.5,1,0],[0.75,1,0],[1,1,0],[0,0.25,0],[0,0.5,0],[0,0.75,0],[1,0.25,0],[1,0.5,0],[1,0.75,0]];outlineConnect=0;fontColor=#232F3E;gradientColor=#FF4F8B;gradientDirection=north;fillColor=#BC1356;strokeColor=#ffffff;dashed=0;verticalLabelPosition=bottom;verticalAlign=top;align=center;html=1;fontSize=12;fontStyle=0;aspect=fixed;shape=mxgraph.aws4.resourceIcon;resIcon=mxgraph.aws4.eventbridge;" parent="1" vertex="1">
          <mxGeometry x="430" y="-362.25" width="55" height="55" as="geometry" />
        </mxCell>
        <mxCell id="ZArKIgMxJLJJzl4LSv2I-3" style="edgeStyle=orthogonalEdgeStyle;rounded=0;orthogonalLoop=1;jettySize=auto;html=1;fontSize=12;" parent="1" source="ZArKIgMxJLJJzl4LSv2I-4" target="ZArKIgMxJLJJzl4LSv2I-2" edge="1">
          <mxGeometry relative="1" as="geometry" />
        </mxCell>
        <mxCell id="ZArKIgMxJLJJzl4LSv2I-4" value="Terminate Event" style="sketch=0;outlineConnect=0;fontColor=#232F3E;gradientColor=none;fillColor=#B0084D;strokeColor=none;dashed=0;verticalLabelPosition=bottom;verticalAlign=top;align=center;html=1;fontSize=12;fontStyle=0;aspect=fixed;pointerEvents=1;shape=mxgraph.aws4.event;" parent="1" vertex="1">
          <mxGeometry x="230" y="-360" width="50" height="50" as="geometry" />
        </mxCell>
        <mxCell id="ZArKIgMxJLJJzl4LSv2I-5" value="ec2 terminate event" style="edgeStyle=orthogonalEdgeStyle;rounded=0;orthogonalLoop=1;jettySize=auto;html=1;fontSize=12;" parent="1" source="ZArKIgMxJLJJzl4LSv2I-6" target="ZArKIgMxJLJJzl4LSv2I-4" edge="1">
          <mxGeometry x="0.0541" relative="1" as="geometry">
            <Array as="points">
              <mxPoint x="340" y="-485" />
              <mxPoint x="340" y="-485" />
            </Array>
            <mxPoint as="offset" />
          </mxGeometry>
        </mxCell>
        <mxCell id="ZArKIgMxJLJJzl4LSv2I-6" value="EC2 Instance" style="outlineConnect=0;dashed=0;verticalLabelPosition=bottom;verticalAlign=top;align=center;html=1;shape=mxgraph.aws3.ec2;fillColor=#F58534;gradientColor=none;fontSize=12;" parent="1" vertex="1">
          <mxGeometry x="365" y="-520" width="60" height="60" as="geometry" />
        </mxCell>
        <mxCell id="AuBCLQnb-2w3E6iwcC4Q-23" value="Managed AD" style="outlineConnect=0;dashed=0;verticalLabelPosition=bottom;verticalAlign=top;align=center;html=1;shape=mxgraph.aws3.directory_service;fillColor=#759C3E;gradientColor=none;fontSize=12;" parent="1" vertex="1">
          <mxGeometry x="990" y="-365" width="61.87" height="60" as="geometry" />
        </mxCell>
        <mxCell id="dDT19QIDYoVKKjMxZ3qm-5" value="AD Credentials" style="sketch=0;points=[[0,0,0],[0.25,0,0],[0.5,0,0],[0.75,0,0],[1,0,0],[0,1,0],[0.25,1,0],[0.5,1,0],[0.75,1,0],[1,1,0],[0,0.25,0],[0,0.5,0],[0,0.75,0],[1,0.25,0],[1,0.5,0],[1,0.75,0]];outlineConnect=0;fontColor=#232F3E;gradientColor=#F54749;gradientDirection=north;fillColor=#C7131F;strokeColor=#ffffff;dashed=0;verticalLabelPosition=bottom;verticalAlign=top;align=center;html=1;fontSize=12;fontStyle=0;aspect=fixed;shape=mxgraph.aws4.resourceIcon;resIcon=mxgraph.aws4.secrets_manager;" parent="1" vertex="1">
          <mxGeometry x="690" y="-210" width="60" height="60" as="geometry" />
        </mxCell>
        <mxCell id="dDT19QIDYoVKKjMxZ3qm-6" value="EC2 Hostname Tag" style="sketch=0;points=[[0,0,0],[0.25,0,0],[0.5,0,0],[0.75,0,0],[1,0,0],[0,1,0],[0.25,1,0],[0.5,1,0],[0.75,1,0],[1,1,0],[0,0.25,0],[0,0.5,0],[0,0.75,0],[1,0.25,0],[1,0.5,0],[1,0.75,0]];outlineConnect=0;fontColor=#232F3E;gradientColor=#F78E04;gradientDirection=north;fillColor=#D05C17;strokeColor=#ffffff;dashed=0;verticalLabelPosition=bottom;verticalAlign=top;align=center;html=1;fontSize=12;fontStyle=0;aspect=fixed;shape=mxgraph.aws4.resourceIcon;resIcon=mxgraph.aws4.ec2;" parent="1" vertex="1">
          <mxGeometry x="690" y="-530" width="60" height="60" as="geometry" />
        </mxCell>
        <mxCell id="dDT19QIDYoVKKjMxZ3qm-10" value="VPC" style="points=[[0,0],[0.25,0],[0.5,0],[0.75,0],[1,0],[1,0.25],[1,0.5],[1,0.75],[1,1],[0.75,1],[0.5,1],[0.25,1],[0,1],[0,0.75],[0,0.5],[0,0.25]];outlineConnect=0;gradientColor=none;html=1;whiteSpace=wrap;fontSize=12;fontStyle=0;container=1;pointerEvents=0;collapsible=0;recursiveResize=0;shape=mxgraph.aws4.group;grIcon=mxgraph.aws4.group_vpc;strokeColor=#248814;fillColor=none;verticalAlign=top;align=left;spacingLeft=30;fontColor=#AAB7B8;dashed=0;opacity=80;" parent="1" vertex="1">
          <mxGeometry x="310" y="-550" width="160" height="140" as="geometry" />
        </mxCell>
        <mxCell id="oK9KnU9zgvsyeJ7xZBO_-1" value="AWS Account" style="points=[[0,0],[0.25,0],[0.5,0],[0.75,0],[1,0],[1,0.25],[1,0.5],[1,0.75],[1,1],[0.75,1],[0.5,1],[0.25,1],[0,1],[0,0.75],[0,0.5],[0,0.25]];outlineConnect=0;gradientColor=none;html=1;whiteSpace=wrap;fontSize=12;fontStyle=0;container=1;pointerEvents=0;collapsible=0;recursiveResize=0;shape=mxgraph.aws4.group;grIcon=mxgraph.aws4.group_account;strokeColor=#CD2264;fillColor=none;verticalAlign=top;align=left;spacingLeft=30;fontColor=#CD2264;dashed=0;" parent="1" vertex="1">
          <mxGeometry x="150" y="-600" width="1130" height="510" as="geometry" />
        </mxCell>
        <mxCell id="cPfWiGYEwuANI0NL3AHa-8" value="us-east-1" style="sketch=0;outlineConnect=0;gradientColor=none;html=1;whiteSpace=wrap;fontSize=12;fontStyle=0;shape=mxgraph.aws4.group;grIcon=mxgraph.aws4.group_region;strokeColor=#879196;fillColor=none;verticalAlign=top;align=left;spacingLeft=30;fontColor=#879196;dashed=1;" parent="oK9KnU9zgvsyeJ7xZBO_-1" vertex="1">
          <mxGeometry x="40" y="30" width="950" height="450" as="geometry" />
        </mxCell>
        <mxCell id="cPfWiGYEwuANI0NL3AHa-3" value="Private subnet" style="points=[[0,0],[0.25,0],[0.5,0],[0.75,0],[1,0],[1,0.25],[1,0.5],[1,0.75],[1,1],[0.75,1],[0.5,1],[0.25,1],[0,1],[0,0.75],[0,0.5],[0,0.25]];outlineConnect=0;gradientColor=none;html=1;whiteSpace=wrap;fontSize=12;fontStyle=0;container=1;pointerEvents=0;collapsible=0;recursiveResize=0;shape=mxgraph.aws4.group;grIcon=mxgraph.aws4.group_security_group;grStroke=0;strokeColor=#147EBA;fillColor=#E6F2F8;verticalAlign=top;align=left;spacingLeft=30;fontColor=#147EBA;dashed=0;" parent="oK9KnU9zgvsyeJ7xZBO_-1" vertex="1">
          <mxGeometry x="490" y="200" width="150" height="140" as="geometry" />
        </mxCell>
        <mxCell id="ZA9tGzA6PP7hEsJ_wA2e-1" value="Lambda Artifact &lt;br&gt;Bucket" style="sketch=0;points=[[0,0,0],[0.25,0,0],[0.5,0,0],[0.75,0,0],[1,0,0],[0,1,0],[0.25,1,0],[0.5,1,0],[0.75,1,0],[1,1,0],[0,0.25,0],[0,0.5,0],[0,0.75,0],[1,0.25,0],[1,0.5,0],[1,0.75,0]];outlineConnect=0;fontColor=#232F3E;gradientColor=#60A337;gradientDirection=north;fillColor=#277116;strokeColor=#ffffff;dashed=0;verticalLabelPosition=bottom;verticalAlign=top;align=center;html=1;fontSize=12;fontStyle=0;aspect=fixed;shape=mxgraph.aws4.resourceIcon;resIcon=mxgraph.aws4.s3;" vertex="1" parent="oK9KnU9zgvsyeJ7xZBO_-1">
          <mxGeometry x="900" y="60" width="60" height="60" as="geometry" />
        </mxCell>
        <mxCell id="ZA9tGzA6PP7hEsJ_wA2e-4" value="Amazon &lt;br&gt;CloudWatch" style="sketch=0;points=[[0,0,0],[0.25,0,0],[0.5,0,0],[0.75,0,0],[1,0,0],[0,1,0],[0.25,1,0],[0.5,1,0],[0.75,1,0],[1,1,0],[0,0.25,0],[0,0.5,0],[0,0.75,0],[1,0.25,0],[1,0.5,0],[1,0.75,0]];points=[[0,0,0],[0.25,0,0],[0.5,0,0],[0.75,0,0],[1,0,0],[0,1,0],[0.25,1,0],[0.5,1,0],[0.75,1,0],[1,1,0],[0,0.25,0],[0,0.5,0],[0,0.75,0],[1,0.25,0],[1,0.5,0],[1,0.75,0]];outlineConnect=0;fontColor=#232F3E;gradientColor=#F34482;gradientDirection=north;fillColor=#BC1356;strokeColor=#ffffff;dashed=0;verticalLabelPosition=bottom;verticalAlign=top;align=center;html=1;fontSize=12;fontStyle=0;aspect=fixed;shape=mxgraph.aws4.resourceIcon;resIcon=mxgraph.aws4.cloudwatch_2;" vertex="1" parent="oK9KnU9zgvsyeJ7xZBO_-1">
          <mxGeometry x="800" y="60" width="60" height="60" as="geometry" />
        </mxCell>
        <mxCell id="ZA9tGzA6PP7hEsJ_wA2e-5" value="Identity and Access&lt;br&gt;Management" style="sketch=0;points=[[0,0,0],[0.25,0,0],[0.5,0,0],[0.75,0,0],[1,0,0],[0,1,0],[0.25,1,0],[0.5,1,0],[0.75,1,0],[1,1,0],[0,0.25,0],[0,0.5,0],[0,0.75,0],[1,0.25,0],[1,0.5,0],[1,0.75,0]];outlineConnect=0;fontColor=#232F3E;gradientColor=#F54749;gradientDirection=north;fillColor=#C7131F;strokeColor=#ffffff;dashed=0;verticalLabelPosition=bottom;verticalAlign=top;align=center;html=1;fontSize=12;fontStyle=0;aspect=fixed;shape=mxgraph.aws4.resourceIcon;resIcon=mxgraph.aws4.identity_and_access_management;" vertex="1" parent="oK9KnU9zgvsyeJ7xZBO_-1">
          <mxGeometry x="1020" y="60" width="60" height="60" as="geometry" />
        </mxCell>
        <mxCell id="ZA9tGzA6PP7hEsJ_wA2e-6" value="Key Management&lt;br&gt;Service" style="sketch=0;points=[[0,0,0],[0.25,0,0],[0.5,0,0],[0.75,0,0],[1,0,0],[0,1,0],[0.25,1,0],[0.5,1,0],[0.75,1,0],[1,1,0],[0,0.25,0],[0,0.5,0],[0,0.75,0],[1,0.25,0],[1,0.5,0],[1,0.75,0]];outlineConnect=0;fontColor=#232F3E;gradientColor=#F54749;gradientDirection=north;fillColor=#C7131F;strokeColor=#ffffff;dashed=0;verticalLabelPosition=bottom;verticalAlign=top;align=center;html=1;fontSize=12;fontStyle=0;aspect=fixed;shape=mxgraph.aws4.resourceIcon;resIcon=mxgraph.aws4.key_management_service;" vertex="1" parent="oK9KnU9zgvsyeJ7xZBO_-1">
          <mxGeometry x="700" y="60" width="60" height="60" as="geometry" />
        </mxCell>
        <mxCell id="AuBCLQnb-2w3E6iwcC4Q-6" value="ADRemoveComputer" style="outlineConnect=0;dashed=0;verticalLabelPosition=bottom;verticalAlign=top;align=center;html=1;shape=mxgraph.aws3.lambda;fillColor=#F58534;gradientColor=none;fontSize=12;" parent="1" vertex="1">
          <mxGeometry x="690" y="-365" width="60" height="60" as="geometry" />
        </mxCell>
        <mxCell id="dDT19QIDYoVKKjMxZ3qm-8" style="edgeStyle=orthogonalEdgeStyle;rounded=0;orthogonalLoop=1;jettySize=auto;html=1;entryX=0;entryY=0.5;entryDx=0;entryDy=0;entryPerimeter=0;" parent="1" source="AuBCLQnb-2w3E6iwcC4Q-6" target="AuBCLQnb-2w3E6iwcC4Q-23" edge="1">
          <mxGeometry relative="1" as="geometry" />
        </mxCell>
        <mxCell id="dDT19QIDYoVKKjMxZ3qm-9" value="Remove Computer" style="edgeLabel;html=1;align=center;verticalAlign=middle;resizable=0;points=[];" parent="dDT19QIDYoVKKjMxZ3qm-8" vertex="1" connectable="0">
          <mxGeometry x="-0.2355" y="-1" relative="1" as="geometry">
            <mxPoint x="18" y="-1" as="offset" />
          </mxGeometry>
        </mxCell>
        <mxCell id="AuBCLQnb-2w3E6iwcC4Q-17" style="edgeStyle=orthogonalEdgeStyle;rounded=0;orthogonalLoop=1;jettySize=auto;html=1;" parent="1" source="AuBCLQnb-2w3E6iwcC4Q-6" edge="1">
          <mxGeometry relative="1" as="geometry">
            <mxPoint x="720.0588235294117" y="-461.22879649641686" as="targetPoint" />
          </mxGeometry>
        </mxCell>
        <mxCell id="dDT19QIDYoVKKjMxZ3qm-1" style="edgeStyle=orthogonalEdgeStyle;rounded=0;orthogonalLoop=1;jettySize=auto;html=1;entryX=0;entryY=0.5;entryDx=0;entryDy=0;entryPerimeter=0;" parent="1" source="ZArKIgMxJLJJzl4LSv2I-2" target="AuBCLQnb-2w3E6iwcC4Q-6" edge="1">
          <mxGeometry relative="1" as="geometry" />
        </mxCell>
        <mxCell id="dDT19QIDYoVKKjMxZ3qm-2" value="instance-id" style="edgeLabel;html=1;align=center;verticalAlign=middle;resizable=0;points=[];" parent="dDT19QIDYoVKKjMxZ3qm-1" vertex="1" connectable="0">
          <mxGeometry x="-0.2686" relative="1" as="geometry">
            <mxPoint x="10" as="offset" />
          </mxGeometry>
        </mxCell>
        <mxCell id="dDT19QIDYoVKKjMxZ3qm-7" style="edgeStyle=orthogonalEdgeStyle;rounded=0;orthogonalLoop=1;jettySize=auto;html=1;" parent="1" source="AuBCLQnb-2w3E6iwcC4Q-6" target="dDT19QIDYoVKKjMxZ3qm-5" edge="1">
          <mxGeometry relative="1" as="geometry" />
        </mxCell>
      </root>
    </mxGraphModel>
  </diagram>
</mxfile>
